<?xml version="1.0" ?><!DOCTYPE svg  PUBLIC '-//W3C//DTD SVG 1.1//EN'  'http://www.w3.org/Graphics/SVG/1.1/DTD/svg11.dtd'><svg enable-background="new 0 0 512 512" height="512px" id="Layer_1" version="1.1" viewBox="0 0 512 512" width="512px" xml:space="preserve" xmlns="http://www.w3.org/2000/svg" xmlns:xlink="http://www.w3.org/1999/xlink"><path d="M493.272,443.611c0,34.171-27.701,61.872-61.873,61.872H81.656c-34.171,0-61.873-27.701-61.873-61.872  V93.866c0-34.171,27.702-61.873,61.873-61.873h349.743c34.172,0,61.873,27.701,61.873,61.873V443.611z" fill="#D26020"/><path d="M493.272,418.867c0,34.172-27.701,61.873-61.873,61.873H81.656c-34.171,0-61.873-27.701-61.873-61.873  V69.122c0-34.171,27.702-61.872,61.873-61.872h349.743c34.172,0,61.873,27.701,61.873,61.872V418.867z" fill="#FBB363"/><path d="M405.617,293.922c-16.617-16.715-33.287-33.382-50-50c-16.594-16.692-33.242-33.334-49.926-49.936  c-14.693-14.621-31.264-27.35-49.194-37.751c-18.167-10.539-37.717-18.672-58.007-24.099c-20.137-5.387-40.968-8.093-61.811-8.102  c0,9.479,0,18.958,0,28.437c0,5.099,0,10.198,0,15.298c0,0.551,0,1.102,0,1.652c0,0.115,0,0.231,0,0.347  c0,0.312,42,41.481,42,41.563c-13.688-3.788-27.88-5.704-42.082-5.713c0,9.482,0,18.965,0,28.448c0,5.102,0,10.202,0,15.304  c0,0.551,0,1.102,0,1.653c0,0.116,0,0.232,0,0.348c0,0.092,0.092,0.101,0.215,0.089l-0.244,0.103l53.087,53.087  c-7.54-5.677-17.39-7.844-26.668-5.622c-10.102,2.421-18.601,9.899-22.327,19.584c-3.863,10.04-2.236,21.622,4.209,30.224  c3.391,4.526,119.215,119.653,131.442,131.905h89.486h0.379h0.078h65.143c34.172,0,61.873-27.701,61.873-61.873v-37.351  C462.309,350.525,417.481,305.719,405.617,293.922z" fill="#F68423"/><g><path d="M170.416,298.156c-8.8,0-16.701,3.558-22.5,9.337v-0.009c-5.785,5.792-9.347,13.684-9.347,22.453   c0,8.762,3.563,16.627,9.347,22.408c5.799,5.775,13.7,9.316,22.5,9.316c8.809,0,16.733-3.528,22.534-9.304l0.02-0.013   c5.793-5.781,9.328-13.654,9.348-22.408c-0.02-8.77-3.555-16.641-9.367-22.444C187.141,301.721,179.225,298.156,170.416,298.156z" fill="#FFFFFF"/><path d="M136.598,205.618v45.809c29.902,0.019,58.191,11.769,79.359,32.972   c21.165,21.132,32.868,49.461,32.913,79.472h0.016v0.086h46c-0.037-43.641-17.773-83.169-46.451-111.867   C219.746,223.395,180.237,205.644,136.598,205.618z" fill="#FFFFFF"/><path d="M306.131,194.425c-43.459-43.465-103.34-70.362-169.451-70.391v45.79   c106.904,0.078,193.814,87.121,193.889,194.132h45.922C376.457,297.819,349.574,237.895,306.131,194.425z" fill="#FFFFFF"/></g></svg>